<svg version="1" xmlns="http://www.w3.org/2000/svg" width="374.667" height="374.667" viewBox="0 0 281.000000 281.000000"><path d="M170.1 83c.1 89.2.2 87.1-5.2 99.6-5.8 13.3-18.1 27.7-30.9 36.4-31.2 21.2-74.7 23.7-108.3 6.3-7.4-3.9-13.3-4.8-15-2.2-1.9 3 .1 6.3 6.5 10.6 9.7 6.5 41.4 21 60.3 27.6 9.4 3.2 20.6 7.1 25 8.7 22.5 7.9 55.8 12 73.9 9 7.9-1.3 14.8-4.8 16.5-8.4 2.5-5.3 1.1-6.4-20.8-15.1-11-4.4-20.1-8.4-20.1-8.9 0-1.3 12.1.3 22.5 2.9 12.6 3.2 28.2 4.9 38.4 4.1 24.5-1.9 38-9.7 40.6-23.7l.7-3.6-10.9-1.1c-15.1-1.7-43.3-6.4-43.3-7.3 0-.4 3-1 6.8-1.4 17.9-1.8 34.4-7.1 46.1-14.9 12-8 17.1-16 17.1-27.1 0-3.6-.4-6.5-.8-6.5s-7.3 1.3-15.2 2.9c-12.3 2.5-34.7 6.1-38 6.1-.6 0-1-.4-1-.8 0-.5 2.6-1.6 5.8-2.6 3.1-1 9.3-3.6 13.7-5.8 16.4-8.2 27.4-18.1 32.8-29.6 2.6-5.6 2.9-7.1 2.5-14.2-.1-4.3-.8-8.4-1.4-9-.7-.7-5.5.9-16.2 5.5-17.4 7.4-50.6 18.9-51 17.6-.1-.4.9-4.3 2.2-8.5 14.3-43.8 3.8-92.2-26.4-122.1l-7.1-7 .2 82.5z"/></svg>